<?xml version="1.0" encoding="UTF-8"?>
<svg xmlns="http://www.w3.org/2000/svg" xmlns:xlink="http://www.w3.org/1999/xlink" width="10px" height="10px" viewBox="0 0 10 10" version="1.1">
<g id="surface1">
<path style=" stroke:none;fill-rule:nonzero;fill:rgb(100%,100%,100%);fill-opacity:1;" d="M 1.667969 0 L 8.332031 0 C 9.253906 0 10 0.746094 10 1.667969 L 10 8.332031 C 10 9.253906 9.253906 10 8.332031 10 L 1.667969 10 C 0.746094 10 0 9.253906 0 8.332031 L 0 1.667969 C 0 0.746094 0.746094 0 1.667969 0 Z M 1.667969 0 "/>
<path style=" stroke:none;fill-rule:nonzero;fill:rgb(48.235294%,80.392157%,81.960784%);fill-opacity:1;" d="M 8.667969 4.917969 C 8.601562 4.917969 8.535156 4.890625 8.488281 4.84375 L 5.390625 1.746094 C 5.289062 1.640625 5.148438 1.582031 5 1.582031 C 4.851562 1.582031 4.710938 1.640625 4.609375 1.746094 L 1.511719 4.84375 C 1.414062 4.941406 1.253906 4.941406 1.15625 4.84375 C 1.058594 4.746094 1.058594 4.585938 1.15625 4.488281 L 4.253906 1.390625 C 4.667969 0.980469 5.332031 0.980469 5.746094 1.390625 L 8.84375 4.488281 C 8.914062 4.5625 8.9375 4.667969 8.898438 4.761719 C 8.859375 4.855469 8.769531 4.917969 8.667969 4.917969 Z M 8.667969 4.917969 "/>
<path style=" stroke:none;fill-rule:nonzero;fill:rgb(74.509804%,77.647059%,95.686275%);fill-opacity:1;" d="M 5 2.332031 L 2.332031 5 L 2.332031 8.667969 L 4 8.667969 L 4 7 C 4 6.449219 4.449219 6 5 6 C 5.550781 6 6 6.449219 6 7 L 6 8.667969 L 7.667969 8.667969 L 7.667969 5 Z M 5 2.332031 "/>
<path style=" stroke:none;fill-rule:nonzero;fill:rgb(55.294118%,61.176471%,95.686275%);fill-opacity:1;" d="M 7.667969 8.917969 L 6 8.917969 C 5.863281 8.917969 5.75 8.804688 5.75 8.667969 L 5.75 7 C 5.75 6.585938 5.414062 6.25 5 6.25 C 4.585938 6.25 4.25 6.585938 4.25 7 L 4.25 8.667969 C 4.25 8.804688 4.136719 8.917969 4 8.917969 L 2.332031 8.917969 C 2.195312 8.917969 2.082031 8.804688 2.082031 8.667969 L 2.082031 5 C 2.082031 4.933594 2.109375 4.871094 2.15625 4.824219 L 4.824219 2.15625 C 4.921875 2.058594 5.078125 2.058594 5.175781 2.15625 L 7.84375 4.824219 C 7.890625 4.871094 7.917969 4.933594 7.917969 5 L 7.917969 8.667969 C 7.917969 8.804688 7.804688 8.917969 7.667969 8.917969 Z M 6.25 8.417969 L 7.417969 8.417969 L 7.417969 5.101562 L 5 2.6875 L 2.582031 5.101562 L 2.582031 8.417969 L 3.75 8.417969 L 3.75 7 C 3.75 6.308594 4.308594 5.75 5 5.75 C 5.691406 5.75 6.25 6.308594 6.25 7 Z M 6.25 8.417969 "/>
<path style=" stroke:none;fill-rule:nonzero;fill:rgb(48.235294%,80.392157%,81.960784%);fill-opacity:1;" d="M 6 8.917969 C 5.863281 8.917969 5.75 8.804688 5.75 8.667969 L 5.75 7 C 5.75 6.585938 5.414062 6.25 5 6.25 C 4.585938 6.25 4.25 6.585938 4.25 7 L 4.25 8.667969 C 4.25 8.804688 4.136719 8.917969 4 8.917969 C 3.863281 8.917969 3.75 8.804688 3.75 8.667969 L 3.75 7 C 3.75 6.308594 4.308594 5.75 5 5.75 C 5.691406 5.75 6.25 6.308594 6.25 7 L 6.25 8.667969 C 6.25 8.804688 6.136719 8.917969 6 8.917969 Z M 6 8.917969 "/>
</g>
</svg>
